<?xml version="1.0" encoding="UTF-8" standalone="no"?>
<!DOCTYPE svg PUBLIC "-//W3C//DTD SVG 1.1//EN" "http://www.w3.org/Graphics/SVG/1.1/DTD/svg11.dtd">
<!-- Created with Vectornator (http://vectornator.io/) -->
<svg height="100%" stroke-miterlimit="10" style="fill-rule:nonzero;clip-rule:evenodd;stroke-linecap:round;stroke-linejoin:round;" version="1.1" viewBox="0 0 1024 1024" width="100%" xml:space="preserve" xmlns="http://www.w3.org/2000/svg" xmlns:xlink="http://www.w3.org/1999/xlink">
<defs/>
<g id="Layer-1">
<path d="M54.4394 519.851C54.4394 470.262 94.6392 430.062 144.228 430.062C193.817 430.062 234.017 470.262 234.017 519.851C234.017 569.44 193.817 609.639 144.228 609.639C94.6392 609.639 54.4394 569.44 54.4394 519.851Z" fill="none" opacity="1" stroke="#13b9e1" stroke-linecap="round" stroke-linejoin="round" stroke-width="48"/>
<path d="M425.216 142.287C425.216 92.6982 465.416 52.4984 515.005 52.4984C564.593 52.4984 604.793 92.6982 604.793 142.287C604.793 191.876 564.593 232.076 515.005 232.076C465.416 232.076 425.216 191.876 425.216 142.287Z" fill="none" opacity="1" stroke="#13b9e1" stroke-linecap="round" stroke-linejoin="round" stroke-width="48"/>
<path d="M425.216 519.851C425.216 470.262 465.416 430.062 515.005 430.062C564.593 430.062 604.793 470.262 604.793 519.851C604.793 569.44 564.593 609.639 515.005 609.639C465.416 609.639 425.216 569.44 425.216 519.851Z" fill="none" opacity="1" stroke="#13b9e1" stroke-linecap="round" stroke-linejoin="round" stroke-width="48"/>
<path d="M425.216 881.713C425.216 832.124 465.416 791.924 515.005 791.924C564.593 791.924 604.793 832.124 604.793 881.713C604.793 931.302 564.593 971.502 515.005 971.502C465.416 971.502 425.216 931.302 425.216 881.713Z" fill="none" opacity="1" stroke="#13b9e1" stroke-linecap="round" stroke-linejoin="round" stroke-width="48"/>
<path d="M425.216 853.735L189.927 611.154" fill="none" opacity="1" stroke="#13b9e1" stroke-linecap="round" stroke-linejoin="round" stroke-width="48"/>
<path d="M430.016 210.66L164.582 431.576" fill="none" opacity="1" stroke="#13b9e1" stroke-linecap="round" stroke-linejoin="round" stroke-width="48"/>
<path d="M977.365 519.851C977.365 470.262 937.165 430.062 887.576 430.062C837.987 430.062 797.788 470.262 797.788 519.851C797.788 569.44 837.987 609.639 887.576 609.639C937.165 609.639 977.365 569.44 977.365 519.851Z" fill="none" opacity="1" stroke="#13b9e1" stroke-linecap="round" stroke-linejoin="round" stroke-width="48"/>
<path d="M604.793 853.735L841.877 611.154" fill="none" opacity="1" stroke="#13b9e1" stroke-linecap="round" stroke-linejoin="round" stroke-width="48"/>
<path d="M601.789 210.66L867.222 431.576" fill="none" opacity="1" stroke="#13b9e1" stroke-linecap="round" stroke-linejoin="round" stroke-width="48"/>
<path d="M514.797 241.829L515.212 419.307" fill="none" opacity="1" stroke="#13b9e1" stroke-linecap="round" stroke-linejoin="round" stroke-width="48"/>
<path d="M514.797 611.154L515.212 788.631" fill="none" opacity="1" stroke="#13b9e1" stroke-linecap="round" stroke-linejoin="round" stroke-width="48"/>
</g>
</svg>
