<?xml version="1.0" encoding="UTF-8" standalone="no"?>
<!DOCTYPE svg PUBLIC "-//W3C//DTD SVG 1.1//EN" "http://www.w3.org/Graphics/SVG/1.1/DTD/svg11.dtd">
<!-- Created with Vectornator (http://vectornator.io/) -->
<svg height="100%" stroke-miterlimit="10" style="fill-rule:nonzero;clip-rule:evenodd;stroke-linecap:round;stroke-linejoin:round;" version="1.1" viewBox="0 0 1024 1024" width="100%" xml:space="preserve" xmlns="http://www.w3.org/2000/svg" xmlns:xlink="http://www.w3.org/1999/xlink">
<defs/>
<g id="Layer-1">
<path d="M422.211 479.62C422.211 430.031 462.411 389.831 512 389.831C561.589 389.831 601.789 430.031 601.789 479.62C601.789 529.209 561.589 569.408 512 569.408C462.411 569.408 422.211 529.209 422.211 479.62Z" fill="none" opacity="1" stroke="#13b9e1" stroke-linecap="round" stroke-linejoin="round" stroke-width="48"/>
<path d="M26 123.066C26 73.4772 66.1998 33.2774 115.789 33.2774C165.378 33.2774 205.577 73.4772 205.577 123.066C205.577 172.655 165.378 212.855 115.789 212.855C66.1998 212.855 26 172.655 26 123.066Z" fill="none" opacity="1" stroke="#13b9e1" stroke-linecap="round" stroke-linejoin="round" stroke-width="48"/>
<path d="M167.398 863.107C167.398 813.518 207.597 773.318 257.186 773.318C306.775 773.318 346.975 813.518 346.975 863.107C346.975 912.696 306.775 952.895 257.186 952.895C207.597 952.895 167.398 912.696 167.398 863.107Z" fill="none" opacity="1" stroke="#13b9e1" stroke-linecap="round" stroke-linejoin="round" stroke-width="48"/>
<path d="M778.182 801.304C778.182 751.715 818.382 711.515 867.971 711.515C917.56 711.515 957.76 751.715 957.76 801.304C957.76 850.893 917.56 891.093 867.971 891.093C818.382 891.093 778.182 850.893 778.182 801.304Z" fill="none" opacity="1" stroke="#13b9e1" stroke-linecap="round" stroke-linejoin="round" stroke-width="24"/>
<path d="M820.043 302.644C820.043 253.055 860.243 212.855 909.832 212.855C959.421 212.855 999.621 253.055 999.621 302.644C999.621 352.232 959.421 392.432 909.832 392.432C860.243 392.432 820.043 352.232 820.043 302.644Z" fill="none" opacity="1" stroke="#13b9e1" stroke-linecap="round" stroke-linejoin="round" stroke-width="24"/>
<path d="M319.618 773.318L449.409 574.386" fill="none" opacity="1" stroke="#13b9e1" stroke-linecap="round" stroke-linejoin="round" stroke-width="48"/>
<path d="M556.645 548.624L798.486 742.678" fill="none" opacity="1" stroke="#13b9e1" stroke-linecap="round" stroke-linejoin="round" stroke-width="24"/>
<path d="M582.97 449.553L820.043 330.109" fill="none" opacity="1" stroke="#13b9e1" stroke-linecap="round" stroke-linejoin="round" stroke-width="24"/>
<path d="M192.708 197.414L430.237 421.486" fill="none" opacity="1" stroke="#13b9e1" stroke-linecap="round" stroke-linejoin="round" stroke-width="48"/>
<g opacity="1">
<path d="M264.487 357.748L346.618 343.641" fill="none" opacity="1" stroke="#13b9e1" stroke-linecap="round" stroke-linejoin="round" stroke-width="48"/>
<path d="M346.618 343.641L358.458 261.152" fill="none" opacity="1" stroke="#13b9e1" stroke-linecap="round" stroke-linejoin="round" stroke-width="48"/>
</g>
<g opacity="1">
<path d="M346.975 606.361L377.338 683.966" fill="none" opacity="1" stroke="#13b9e1" stroke-linecap="round" stroke-linejoin="round" stroke-width="48"/>
<path d="M377.338 683.966L460.521 678.945" fill="none" opacity="1" stroke="#13b9e1" stroke-linecap="round" stroke-linejoin="round" stroke-width="48"/>
</g>
</g>
</svg>
